<svg width="72" height="72" viewBox="0 0 72 72" fill="none" xmlns="http://www.w3.org/2000/svg">
<path d="M33.7785 21.0635C31.697 17.9419 31.2471 13.77 31.1489 12.0556C25.8617 13.199 20.6089 15.2498 20.9123 16.7603C20.9505 16.9502 21.1902 17.1784 21.5879 17.4002L20.9658 18.5129C20.2061 18.0872 19.7791 17.5965 19.6632 17.0101C19.3203 15.3008 21.2565 13.7547 25.58 12.2825C28.5321 11.2768 31.5096 10.6764 31.6358 10.6522L32.3968 10.4993V11.2781C32.3968 11.3316 32.4299 16.7437 34.839 20.3573L33.7785 21.0635Z" fill="#CFD8DC"/>
<path d="M35.903 61.4996H35.583C25.1412 61.4996 13.5203 58.2199 12.1475 52.7313C11.3101 49.379 14.0493 45.6749 20.0681 42.0231L20.731 43.1116C15.315 46.3989 12.7058 49.704 13.3852 52.4229C14.577 57.1875 25.5899 60.1574 35.2491 60.2236C36.3975 58.5067 42.5681 48.4205 39.0462 34.8927L40.2788 34.5715C44.2927 49.9845 36.177 61.1312 36.0955 61.2421L35.903 61.4996Z" fill="#CFD8DC"/>
<path d="M17.0138 56.7913C16.3268 56.7913 15.9864 56.7161 15.9303 56.7021C15.706 56.6473 15.5301 56.4752 15.4689 56.2534C15.4065 56.0317 15.4702 55.7933 15.6333 55.6314C15.7251 55.5396 24.8069 46.4438 26.0331 39.0892L27.2899 39.2982C26.2358 45.6255 20.0054 52.8387 17.5313 55.495C20.0028 55.3535 26.2434 54.1962 38.2238 47.4903C28.8743 46.4655 27.3957 38.9808 27.3804 38.9005L28.6334 38.6698C28.6933 38.9834 30.1961 46.3317 40.4161 46.3317C40.42 46.3317 40.4225 46.3317 40.4263 46.3317C40.7157 46.3317 40.9668 46.5254 41.0407 46.8033C41.1172 47.0811 40.9948 47.3756 40.7463 47.5209C26.4257 55.8175 19.4815 56.7901 17.0138 56.7913Z" fill="#CFD8DC"/>
<path d="M22.8671 59.841C22.6033 59.841 22.3636 59.6778 22.2706 59.4267C22.1699 59.1578 22.2617 58.8531 22.4962 58.6849C22.5395 58.653 24.8071 56.9794 27.22 53.2957C26.2921 52.8853 25.3527 52.406 24.4209 51.8464C23.289 51.1671 22.4338 50.438 21.7952 49.691C18.5193 50.5552 15.4959 50.8968 12.8408 50.6712L12.9479 49.4017C15.3391 49.6043 18.0579 49.3214 21.0049 48.5859C18.9999 45.1597 20.8405 41.759 20.8659 41.7131L21.98 42.3338C21.8946 42.4893 20.3676 45.3547 22.2974 48.2392C25.1028 47.4336 28.0957 46.2419 31.1931 44.6932C31.9056 42.3542 32.4626 39.694 32.7545 36.6935C32.7749 36.4883 32.8922 36.306 33.0706 36.2028C33.2491 36.0996 33.467 36.0906 33.6544 36.176C33.6952 36.1952 37.8148 38.0765 40.7975 39.304C41.0142 39.3932 41.1646 39.5946 41.1888 39.8279C41.2143 40.0611 41.1085 40.288 40.9135 40.4206C37.9958 42.409 35.0973 44.1336 32.274 45.5727C31.3792 48.4087 30.2715 50.7694 29.1396 52.6992C33.8583 54.462 37.9538 54.4888 38.006 54.4888C38.2966 54.4888 38.5503 54.6851 38.6229 54.9668C38.6956 55.2484 38.5694 55.5429 38.3158 55.6844C32.5289 58.899 23.3171 59.804 22.9283 59.841C22.9079 59.8397 22.8875 59.841 22.8671 59.841ZM28.4564 53.8081C27.1308 55.8654 25.8281 57.3427 24.8543 58.3076C27.401 57.9328 31.8661 57.112 35.5715 55.5811C33.7972 55.3632 31.2288 54.8788 28.4564 53.8081ZM23.1769 49.301C23.6778 49.8006 24.3024 50.2888 25.0761 50.7541C26.0142 51.3175 26.9664 51.7955 27.9058 52.2008C28.8669 50.5896 29.819 48.656 30.6361 46.3782C28.06 47.6044 25.5592 48.5834 23.1769 49.301ZM33.9284 37.6992C33.6671 39.9528 33.2644 42.0088 32.7647 43.8812C34.8806 42.7532 37.0398 41.4645 39.2169 40.0242C37.2425 39.188 35.0718 38.2155 33.9284 37.6992Z" fill="#CFD8DC"/>
<path d="M27.201 20.2015C27.0519 20.2015 26.904 20.148 26.7867 20.0485C24.7346 18.2921 22.3191 14.718 22.2171 14.5663C22.0527 14.3229 22.0782 13.9978 22.2758 13.7811C22.4721 13.5632 22.7958 13.5122 23.0508 13.6511C23.0648 13.6549 24.2464 14.1419 32.2498 15.4751C32.4805 15.5134 32.6705 15.674 32.7469 15.8932C32.8247 16.1124 32.775 16.3572 32.6195 16.5305C30.3787 19.0199 27.5477 20.1161 27.4279 20.1607C27.3539 20.1875 27.2762 20.2015 27.201 20.2015ZM24.2986 15.289C25.1029 16.3712 26.2616 17.8332 27.3221 18.8185C27.9734 18.5215 29.4342 17.7759 30.8197 16.5267C27.5273 15.9646 25.5185 15.5644 24.2986 15.289Z" fill="#CFD8DC"/>
<path d="M32.1949 37.7899C32.1083 37.7899 32.0203 37.7721 31.9387 37.7364C31.6851 37.6242 31.5321 37.3616 31.5614 37.0863C31.9336 33.5823 26.5572 32.1764 26.5024 32.1636C26.2806 32.1076 26.1047 31.9355 26.0448 31.715C25.9849 31.4945 26.0474 31.2574 26.2092 31.0955C26.4731 30.8316 32.7596 24.5974 40.6471 21.1737C40.8676 21.0781 41.1174 21.1138 41.3035 21.2629C41.4883 21.4133 41.5737 21.6542 41.5253 21.8862C40.0136 29.2078 32.9725 37.238 32.6742 37.5758C32.548 37.7147 32.3721 37.7899 32.1949 37.7899ZM27.8765 31.2701C29.3856 31.8373 32.0292 33.1502 32.6984 35.5478C34.5454 33.2433 38.4878 27.9344 39.96 22.8855C34.3682 25.575 29.6597 29.6309 27.8765 31.2701Z" fill="#B71C1C"/>
<path d="M21.0254 42.8389L20.4199 41.7173C22.8201 40.4235 25.5695 38.0425 27.8217 35.2752C25.9047 36.5881 24.8072 37.4867 24.7728 37.5161L23.9583 36.5346C24.008 36.4938 26.2068 34.6902 29.8612 32.4303C30.8643 30.8166 31.6355 29.157 32.0319 27.5662C32.0994 27.296 32.1581 27.0347 32.2052 26.7823C29.7516 25.9066 27.4878 25.3879 25.9327 25.1648C25.6969 25.1317 25.5006 24.9698 25.4216 24.7467C25.3426 24.5237 25.3948 24.2738 25.5542 24.1005C25.6625 23.9832 28.2513 21.2096 31.4863 19.6864C31.7374 19.5679 32.0383 19.6265 32.2269 19.8317C32.3123 19.9248 34.0624 21.8903 33.6175 25.9564C35.0897 26.5299 36.6066 27.2272 38.0673 28.057C41.584 26.4764 45.5775 25.0539 49.8309 24.1948C50.0502 24.1515 50.2936 24.2305 50.444 24.4089C50.5932 24.5874 50.634 24.8334 50.5498 25.0501C48.8928 29.2972 44.4494 33.8336 44.2608 34.0248C44.132 34.1548 43.9561 34.2198 43.7726 34.2135C43.5903 34.2033 43.4221 34.1166 43.3073 33.9738C41.8797 32.1791 40.0137 30.6929 38.001 29.4833C35.2287 30.763 32.7737 32.132 30.756 33.3697C28.1812 37.3886 24.2948 41.0787 21.0254 42.8389ZM39.3967 28.8638C41.041 29.9243 42.5719 31.1709 43.8376 32.6214C44.893 31.4768 47.4257 28.5834 48.8622 25.7104C45.4844 26.4879 42.2876 27.6134 39.3967 28.8638ZM33.4149 27.2399C33.3728 27.4477 33.3244 27.6606 33.2708 27.8772C33.0032 28.9467 32.5774 30.0454 32.0319 31.1416C33.4289 30.3437 34.975 29.5202 36.6435 28.7223C35.5754 28.1564 34.4856 27.6644 33.4149 27.2399ZM27.3591 24.1171C28.7752 24.3949 30.5202 24.8487 32.3824 25.5013C32.5762 23.1522 31.9414 21.7131 31.5577 21.0758C29.8038 21.991 28.2679 23.2783 27.3591 24.1171Z" fill="#B71C1C"/>
<path d="M27.3637 30.2698C27.3637 35.8527 22.7113 40.2885 19.359 43.5261C18.7981 44.0742 16.8989 44.1634 16.8989 44.1634C17.3705 43.679 17.9059 43.1692 18.4795 42.6211C21.6661 39.5365 26.0891 35.3174 26.0891 30.2698C26.0891 24.2918 23.68 21.9337 21.7808 20.0472C20.9395 19.1932 20.2257 18.3775 19.7924 17.3832L20.1875 17.2175C20.6209 17.4087 21.118 17.6254 21.5004 17.7911C21.8063 18.2372 22.2142 18.6706 22.6858 19.1422C24.636 21.0924 27.3637 23.7692 27.3637 30.2698Z" fill="#B71C1C"/>
<path d="M59.082 31.9198C59.082 31.9198 58.3108 32.0294 58.0942 32.0549C46.9283 33.2913 35.4056 36.5034 28.8157 39.1419C26.4321 40.0979 23.9593 41.2578 21.7032 42.5579C21.6905 42.5707 21.6777 42.5707 21.6522 42.5834C20.3266 43.3482 17.1018 44.9288 14.4888 46.3181C18.3127 42.252 25.4762 39.1164 28.3313 37.9692C34.7938 35.3817 45.8959 32.2588 56.8195 30.9205C55.5321 29.4164 52.3838 26.2298 46.189 23.859C42.5691 22.4569 37.0626 21.6666 32.2062 20.9655C24.4819 19.8566 20.0844 19.1173 19.6638 17.0142C19.5746 16.5935 19.6383 16.1729 19.8295 15.765C20.2501 16.4533 20.8492 16.9377 21.2444 17.2181C21.4356 17.3456 21.5758 17.422 21.6267 17.4475L21.6395 17.4603C23.4495 18.4163 28.3313 19.1173 32.3974 19.7036C37.3175 20.4174 42.8877 21.2205 46.6479 22.6608C55.4047 26.0386 58.4256 30.8695 58.553 31.0734C58.6677 31.2646 59.082 31.9198 59.082 31.9198Z" fill="#B71C1C"/>
</svg>
